<?xml version="1.0" standalone="no"?>
<!DOCTYPE svg PUBLIC "-//W3C//DTD SVG 20010904//EN"
 "http://www.w3.org/TR/2001/REC-SVG-20010904/DTD/svg10.dtd">
<svg version="1.0" xmlns="http://www.w3.org/2000/svg"
 width="70.000000pt" height="70.000000pt" viewBox="0 0 70.000000 70.000000"
 preserveAspectRatio="xMidYMid meet">
<metadata>
Created by potrace 1.14, written by Peter Selinger 2001-2017
</metadata>
<g transform="translate(0.000000,70.000000) scale(0.100000,-0.100000)"
fill="#000000" stroke="none">
<path d="M67 623 c5 -12 2 -15 -9 -10 -10 3 -23 -3 -35 -16 -16 -19 -16 -20 0
-8 10 8 17 9 17 3 0 -6 -9 -14 -20 -17 -19 -6 -20 -15 -20 -227 0 -188 2 -219
14 -215 10 4 13 1 9 -9 -3 -7 0 -14 6 -14 6 0 11 -5 11 -11 0 -5 -4 -7 -10 -4
-6 3 -10 4 -10 1 0 -3 13 -12 30 -21 26 -13 29 -13 24 0 -3 8 -11 12 -18 8 -6
-3 -7 -2 -3 2 11 13 38 15 30 2 -4 -6 0 -8 10 -4 9 3 18 1 21 -6 3 -8 7 -9 13
-2 11 13 43 18 43 7 0 -6 7 -13 16 -16 13 -5 14 -4 6 7 -9 11 -7 13 11 13 12
-1 25 -5 30 -11 5 -7 10 -7 15 0 10 13 42 18 42 7 0 -6 7 -13 16 -16 13 -5 14
-4 6 7 -9 11 -7 13 11 13 12 -1 25 -5 30 -11 5 -7 10 -7 15 0 10 13 42 18 42
7 0 -6 7 -13 16 -16 13 -5 14 -4 6 7 -9 11 -7 13 11 13 12 -1 25 -5 30 -11 5
-7 10 -7 15 0 10 13 42 18 42 7 0 -6 7 -13 16 -16 13 -5 14 -4 6 7 -9 11 -7
13 11 13 12 -1 25 -5 30 -11 5 -7 10 -7 15 0 11 15 46 19 36 4 -4 -8 -3 -10 4
-5 7 4 12 11 12 17 0 5 9 18 20 29 19 19 20 33 20 229 0 209 -3 241 -22 241
-6 0 -4 -8 3 -17 13 -16 12 -17 -3 -5 -9 7 -15 22 -13 32 3 14 -1 17 -12 13
-10 -4 -14 -2 -10 4 7 12 -32 11 -52 -1 -8 -5 -17 -3 -22 5 -8 12 -10 12 -18
0 -8 -12 -12 -12 -25 -2 -11 9 -16 10 -16 2 0 -6 -5 -11 -11 -11 -5 0 -8 3 -6
8 7 10 -105 9 -122 -2 -9 -6 -12 -5 -8 1 3 5 0 10 -8 10 -8 0 -12 -4 -9 -8 2
-4 -1 -11 -7 -15 -7 -4 -9 -3 -5 4 3 6 1 14 -5 18 -6 3 -15 1 -19 -7 -7 -10
-11 -10 -24 0 -11 9 -16 10 -16 2 0 -6 -5 -11 -11 -11 -5 0 -7 5 -3 11 4 8 0
8 -15 0 -16 -9 -21 -9 -21 1 0 6 -7 3 -16 -8 -8 -10 -12 -13 -8 -5 5 11 2 13
-14 9 -12 -4 -20 -3 -17 1 6 10 -36 8 -53 -2 -7 -5 -19 -2 -28 7 -20 20 -25
20 -17 -1z"/>
</g>
</svg>
